<svg id="Layer_1" data-name="Layer 1" xmlns="http://www.w3.org/2000/svg" viewBox="0 0 3578.49 856.99"><defs><style>.cls-1,.cls-2{fill:#0d6efd;}.cls-2{font-size:301.55px;font-family:ArialMT, Arial;}</style></defs><path class="cls-1" d="M427,163.5a35.37,35.37,0,0,0-1.3-4.05,35.9,35.9,0,1,0-.82,27.7,36.41,36.41,0,0,0,1.53-4A35.78,35.78,0,0,0,428,174.4,36.44,36.44,0,0,0,427,163.5Zm-14,22.25a24.75,24.75,0,1,1,.74-25.63c.37.66.72,1.33,1,2a24.6,24.6,0,0,1-.67,21.71A21.06,21.06,0,0,1,413,185.75Z"/><path class="cls-1" d="M430.62,622.13a32.79,32.79,0,0,0-1.3-4,35.89,35.89,0,1,0-.82,27.69,36.41,36.41,0,0,0,1.53-4,35.78,35.78,0,0,0,1.63-8.79A36.44,36.44,0,0,0,430.62,622.13Zm-14,22.25a24.75,24.75,0,1,1,.74-25.63c.37.66.72,1.33,1,2a24.6,24.6,0,0,1-.67,21.71A18.93,18.93,0,0,1,416.59,644.38Z"/><path class="cls-1" d="M377,223a51.88,51.88,0,0,1,0,73.37,51.88,51.88,0,0,0,0,73.36,51.88,51.88,0,0,1,0,73.35,51.88,51.88,0,0,0,0,73.36,51.87,51.87,0,1,1-73.35,0,51.87,51.87,0,0,0,0-73.35,51.87,51.87,0,0,1,0-73.36,51.89,51.89,0,0,0,0-73.37A51.87,51.87,0,0,1,377,223Z"/><circle class="cls-1" cx="637.64" cy="417.31" r="44.21"/><path class="cls-1" d="M654.73,406.4a238.72,238.72,0,0,1-6.09,53.75c-23.1,100.33-109.42,176.78-214.6,185q-5.69.45-11.46.61a22.82,22.82,0,0,0,.62-20.16,19.15,19.15,0,0,0-.95-1.86c3.74-.11,7.44-.31,11.13-.63C526.74,615.35,603.54,548.4,626,460a218.3,218.3,0,0,0,4.22-86.27c-14.92-98.6-96.3-175.68-196.88-184-3.68-.31-7.4-.52-11.12-.65a22.93,22.93,0,0,0,.37-22c3.83.12,7.64.31,11.43.61,113.1,8.82,204.41,96.57,218.72,208.07A238.61,238.61,0,0,1,654.73,406.4Z"/><path class="cls-1" d="M542.25,378.34H423.78a11,11,0,1,1,0-22H542.25a11,11,0,1,1,0,22Z"/><path class="cls-1" d="M542.25,497.78H423.78a11,11,0,1,1,0-22H542.25a11,11,0,1,1,0,22Z"/><path class="cls-1" d="M498.06,441.2h-68a11,11,0,1,1,0-22h68a11,11,0,1,1,0,22Z"/><text class="cls-2" transform="translate(771.38 565.83)">DOCUCLEVER.ai</text></svg>